<svg width="64" height="64" viewBox="0 0 64 64" fill="none" xmlns="http://www.w3.org/2000/svg">
<rect width="64" height="64" rx="8" fill="white"/>
<g clip-path="url(#clip0_66_100)">
<path d="M6.05713 47.2029C6.16225 47.1952 6.26583 47.1627 6.34467 47.09C6.98468 46.499 10.5186 43.8937 10.6439 43.4961L10.6918 32.5212C11.9393 22.9867 23.0993 27.7702 29.1315 26.2603C31.0531 25.7791 32.6036 23.5436 34.3861 22.5844C36.5813 21.4056 38.911 21.8805 41.3056 21.7908C40.9825 25.612 45.4857 27.9806 48.3256 25.2717V25.0412L47.16 23.8994C45.3451 25.4481 42.9226 24.1516 43.1591 21.7908H49.247C49.4557 21.7908 50.51 22.241 50.7341 22.391C51.8766 23.1507 51.9647 24.2661 52.6665 25.2144C54.0347 27.0632 57.2301 28.9166 57.8283 31.1877C58.5596 33.9647 56.8544 34.0157 54.6036 33.8347C51.8518 31.5605 48.7615 28.0115 45.0745 31.0763C42.7201 33.0333 43.1035 38.0458 40.729 39.1427C40.0055 39.4768 38.9357 39.2572 38.611 39.924L35.7372 51.2036V57.9921H33.8821V35.7144H32.027V39.7182C28.4265 41.7804 23.5615 41.8268 19.9688 39.7182V35.7144H18.1137V41.1106C18.1137 42.424 16.8353 44.4986 15.849 45.3418C13.9274 46.9848 11.5513 46.9151 9.41795 47.8403C9.22471 47.9238 9.0763 48.0151 8.96809 48.2023L8.02663 57.9937H6.05713V47.2029Z" fill="black"/>
<path d="M41.8823 40.7053L45.8244 48.781L43.3153 58L42.3461 57.9288L43.1345 48.4453L39.5928 43.6494L40.2019 41.2855L41.8823 40.7053Z" fill="black"/>
<path d="M16.8401 57.9938L13.3525 48.6665C16.6747 47.7553 19.142 45.2352 19.9211 41.8625L22.4039 42.6809C21.9092 44.7927 20.4514 46.5285 18.686 47.7151C18.0119 48.1684 16.2882 48.7764 16.2527 49.584L18.6952 57.9938H16.8401Z" fill="black"/>
<path d="M47.8867 31.8004C49.8113 31.5698 51.4686 33.8255 52.897 34.8465C52.0112 35.5412 50.9476 37.2228 49.8639 37.4936C48.6936 37.786 47.6563 37.2429 47.1848 36.1569C47.0318 35.8026 46.1506 32.8431 46.1924 32.6667C46.2913 32.2413 47.4956 31.8483 47.8867 31.8019V31.8004Z" fill="black"/>
<path d="M6.05722 31.3657C6.31848 29.5263 8.39619 28.0194 10.2312 28.2917C9.53398 29.3329 9.15214 30.5272 8.86615 31.7401C8.77649 32.1207 8.83832 32.5245 8.71619 32.9824C8.37609 34.2541 7.32332 35.2844 6.05567 35.6C6.18862 34.2881 5.87635 32.6328 6.05567 31.3642L6.05722 31.3657Z" fill="black"/>
<path d="M42.2318 19.9359H40.3767C40.641 18.1428 39.681 16.3916 37.7733 16.2183C33.8931 15.8655 26.2532 17.9247 25.5683 12.1882C25.4369 11.0882 25.3797 7.8208 25.5421 6.77344C25.675 5.91636 26.8638 5.72453 27.2611 6.43154C27.6136 7.0581 27.2843 9.96968 27.3894 10.9443C27.595 12.8441 29.7145 14.0214 31.4366 13.1365C33.8405 11.9004 32.6363 8.86043 32.9625 6.77344C33.1078 5.84365 34.3971 5.72143 34.7588 6.58624C35.1252 8.48295 34.2054 11.7132 35.3942 13.2603C36.6325 14.8723 39.0472 14.6913 40.0335 12.9184C40.6395 11.8277 40.2437 10.7912 40.3751 9.66336C40.5344 8.30194 42.2333 8.80938 42.2333 9.43439V19.9359H42.2318Z" fill="black"/>
<path d="M49.6522 19.936H47.7971C48.1434 17.5519 46.4738 15.8765 44.0869 16.223V14.2505C45.3808 14.6373 46.7954 14.1035 47.4539 12.92C48.0599 11.8293 47.6642 10.7928 47.7956 9.66499C47.9548 8.30357 49.6538 8.811 49.6538 9.43602V19.9375L49.6522 19.936Z" fill="black"/>
<path d="M56.1448 21.7925C56.2406 22.9126 55.7459 24.1193 54.5772 24.4225L54.0779 23.9197L52.8999 21.7925H56.1463H56.1448Z" fill="black"/>
<path d="M45.942 19.936H44.0869V18.0795C45.6591 17.9 46.1213 18.361 45.942 19.936Z" fill="black"/>
</g>
<defs>
<clipPath id="clip0_66_100">
<rect width="52" height="52" fill="white" transform="translate(6 6)"/>
</clipPath>
</defs>
</svg>
