<svg width="64" height="64" viewBox="0 0 64 64" fill="none" xmlns="http://www.w3.org/2000/svg">
<g clip-path="url(#clip0_66_100)">
<path d="M4.06152 48.3725C4.17473 48.3641 4.28628 48.3292 4.37118 48.2508C5.06042 47.6144 8.86623 44.8087 9.00108 44.3806L9.05269 32.5614C10.3962 22.2934 22.4146 27.4449 28.9108 25.8189C30.9802 25.3007 32.65 22.8932 34.5696 21.8603C36.9337 20.5907 39.4426 21.1022 42.0214 21.0056C41.6734 25.1208 46.5231 27.6715 49.5814 24.7542V24.506L48.3261 23.2764C46.3716 24.9442 43.7628 23.548 44.0175 21.0056H50.5736C50.7984 21.0056 51.9338 21.4904 52.1752 21.652C53.4055 22.4701 53.5004 23.6713 54.2563 24.6926C55.7296 26.6835 59.1708 28.6795 59.8151 31.1253C60.6026 34.1159 58.7663 34.1709 56.3423 33.9759C53.3789 31.5268 50.0509 27.7048 46.0803 31.0053C43.5447 33.1129 43.9576 38.511 41.4004 39.6922C40.6213 40.0521 39.4692 39.8155 39.1196 40.5336L36.0247 52.6809V59.9917H34.0269V36.0002H32.0291V40.312C28.1517 42.5329 22.9124 42.5829 19.0434 40.312V36.0002H17.0456V41.8115C17.0456 43.226 15.6687 45.4602 14.6066 46.3682C12.5372 48.1376 9.97834 48.0626 7.68087 49.0589C7.47277 49.1489 7.31294 49.2472 7.1964 49.4488L6.18252 59.9933H4.06152V48.3725Z" fill="black"/>
<path d="M42.6424 41.375L46.8877 50.0719L44.1857 60L43.1418 59.9234L43.9909 49.7104L40.1768 44.5455L40.8327 41.9998L42.6424 41.375Z" fill="black"/>
<path d="M15.6738 59.9932L11.918 49.9485C15.4957 48.9672 18.1528 46.2531 18.9918 42.6211L21.6656 43.5024C21.1328 45.7766 19.5629 47.646 17.6616 48.9238C16.9358 49.412 15.0795 50.0668 15.0412 50.9365L17.6716 59.9932H15.6738Z" fill="black"/>
<path d="M49.1084 31.785C51.1812 31.5368 52.9658 33.9659 54.5042 35.0655C53.5502 35.8136 52.4048 37.6246 51.2378 37.9162C49.9775 38.231 48.8604 37.6463 48.3526 36.4767C48.1878 36.0951 47.2388 32.9079 47.2838 32.718C47.3903 32.2598 48.6872 31.8367 49.1084 31.7867V31.785Z" fill="black"/>
<path d="M4.06173 31.3168C4.34309 29.3358 6.58063 27.7131 8.55678 28.0063C7.80594 29.1276 7.39473 30.4138 7.08673 31.72C6.99017 32.1298 7.05677 32.5647 6.92525 33.0578C6.55898 34.4274 5.42523 35.537 4.06007 35.8768C4.20324 34.464 3.86695 32.6813 4.06007 31.3151L4.06173 31.3168Z" fill="black"/>
<path d="M43.0188 19.0079H41.021C41.3057 17.077 40.2719 15.191 38.2174 15.0044C34.0387 14.6245 25.8111 16.8421 25.0736 10.6643C24.9321 9.47968 24.8705 5.96094 25.0453 4.83301C25.1885 3.91001 26.4687 3.70341 26.8966 4.46481C27.2762 5.13957 26.9216 8.27511 27.0348 9.32474C27.2562 11.3707 29.5387 12.6386 31.3933 11.6856C33.9821 10.3544 32.6852 7.08054 33.0365 4.83301C33.193 3.8317 34.5815 3.70008 34.971 4.63141C35.3656 6.67402 34.375 10.1528 35.6553 11.8188C36.9888 13.5549 39.5893 13.36 40.6514 11.4506C41.304 10.2761 40.8779 9.1598 41.0194 7.94523C41.1908 6.47909 43.0205 7.02556 43.0205 7.69865V19.0079H43.0188Z" fill="black"/>
<path d="M51.01 19.008H49.0122C49.3851 16.4406 47.5871 14.6362 45.0166 15.0094V12.8852C46.4101 13.3017 47.9334 12.7269 48.6426 11.4524C49.2952 10.2778 48.869 9.16151 49.0105 7.94694C49.182 6.4808 51.0117 7.02727 51.0117 7.70037V19.0097L51.01 19.008Z" fill="black"/>
<path d="M58.0023 21.0073C58.1055 22.2136 57.5728 23.5131 56.3142 23.8396L55.7764 23.2982L54.5078 21.0073H58.004H58.0023Z" fill="black"/>
<path d="M47.0144 19.0078H45.0166V17.0085C46.7097 16.8153 47.2075 17.3118 47.0144 19.0078Z" fill="black"/>
</g>
<defs>
<clipPath id="clip0_66_100">
<rect width="56" height="56" fill="white" transform="translate(4 4)"/>
</clipPath>
</defs>
</svg>
